<svg viewBox="0 0 512 512" width="512" height="512" xmlns="http://www.w3.org/2000/svg">
  <style>
    /* Monochrome, matching the site's grayscale theme.
       Adapts to the browser/OS theme so it stays legible on any tab. */
    rect { fill: #fafafa; }
    @media (prefers-color-scheme: light) {
      rect { fill: #171717; }
    }
  </style>
  <g>
    <rect x="230" y="24" width="52" height="172" rx="26" transform="rotate(0 256 256)" />
    <rect x="230" y="24" width="52" height="172" rx="26" transform="rotate(45 256 256)" />
    <rect x="230" y="24" width="52" height="172" rx="26" transform="rotate(90 256 256)" />
    <rect x="230" y="24" width="52" height="172" rx="26" transform="rotate(135 256 256)" />
    <rect x="230" y="24" width="52" height="172" rx="26" transform="rotate(180 256 256)" />
    <rect x="230" y="24" width="52" height="172" rx="26" transform="rotate(225 256 256)" />
    <rect x="230" y="24" width="52" height="172" rx="26" transform="rotate(270 256 256)" />
    <rect x="230" y="24" width="52" height="172" rx="26" transform="rotate(315 256 256)" />
  </g>
</svg>
